<?xml version="1.0" encoding="UTF-8" standalone="no"?>
<svg
   height="16"
   viewBox="0 0 16 16"
   width="16"
   version="1.1"
   id="svg15"
   sodipodi:docname="audio-manager.svg"
   inkscape:version="1.1 (c68e22c387, 2021-05-23)"
   inkscape:export-filename="C:\Users\Luca\repos\godot-audio-manager1\icon.png"
   inkscape:export-xdpi="384"
   inkscape:export-ydpi="384"
   xmlns:inkscape="http://www.inkscape.org/namespaces/inkscape"
   xmlns:sodipodi="http://sodipodi.sourceforge.net/DTD/sodipodi-0.dtd"
   xmlns="http://www.w3.org/2000/svg"
   xmlns:svg="http://www.w3.org/2000/svg">
  <defs
     id="defs19" />
  <sodipodi:namedview
     id="namedview17"
     pagecolor="#ffffff"
     bordercolor="#666666"
     borderopacity="1.0"
     inkscape:pageshadow="2"
     inkscape:pageopacity="0.0"
     inkscape:pagecheckerboard="0"
     showgrid="false"
     inkscape:zoom="25.53125"
     inkscape:cx="7.9314565"
     inkscape:cy="9.2044064"
     inkscape:window-width="1920"
     inkscape:window-height="1009"
     inkscape:window-x="-8"
     inkscape:window-y="-8"
     inkscape:window-maximized="1"
     inkscape:current-layer="svg15" />
  <linearGradient
     id="a"
     gradientUnits="userSpaceOnUse"
     x1="8"
     x2="8"
     y1="1"
     y2="15">
    <stop
       offset="0"
       stop-color="#ff5f5f"
       id="stop2" />
    <stop
       offset=".5"
       stop-color="#e1da5b"
       id="stop4" />
    <stop
       offset="1"
       stop-color="#5fff97"
       id="stop6" />
  </linearGradient>
  <g
     transform="translate(0,-1036.4)"
     id="g13">
    <path
       d="m 10.023,1044.4 c -0.56139,-0.013 -1.0235,0.4264 -1.0234,0.9724 v 5.0542 c 6.911e-4,0.7482 0.83361,1.2154 1.5,0.8414 l 4,-2.5262 c 0.66694,-0.3743 0.66694,-1.3104 0,-1.6847 l -4,-2.5261 c -0.14505,-0.082 -0.30893,-0.1269 -0.47656,-0.131 z"
       fill="#e0e0e0"
       id="path9" />
    <path
       d="m 11.971,1.002 a 1.0001,1.0001 0 0 0 -0.24609,0.037109 l -7,2 A 1.0001,1.0001 0 0 0 4.0003,4.000049 v 5.5508 a 2.5,2.5 0 0 0 -0.5,-0.050781 2.5,2.5 0 0 0 -2.5,2.5 2.5,2.5 0 0 0 2.5,2.5 2.5,2.5 0 0 0 2.4961,-2.4121 1.0001,1.0001 0 0 0 0.00391,-0.08789 v -7.2441 l 5,-1.4277 v 3.1719 l 2,-1 v -3.5 a 1.0001,1.0001 0 0 0 -1.0293,-0.99805 z"
       fill="url(#a)"
       transform="translate(0,1036.4)"
       id="path11"
       style="fill:#e0e0e0;fill-opacity:1" />
  </g>
</svg>
